<svg version="1.1" xmlns="http://www.w3.org/2000/svg" xmlns:xlink="http://www.w3.org/1999/xlink" width="500" height="500"><defs><linearGradient x1="250" y1="50" x2="250" y2="450" gradientUnits="userSpaceOnUse" id="color-1"><stop offset="0" stop-color="#457c3d"></stop><stop offset="1" stop-color="#67ba5c"></stop></linearGradient></defs><g data-paper-data="{&quot;description&quot;:&quot;Logo for 510208\n===============\n\nThis logo was generated by MarkMaker at http://emblemmatic.org/markmaker/ and may be composed of elements designed by others.\n\nThe font is Dosis Medium designed by Pablo Impallari and released under the OFL license via Google Fonts: https://www.google.com/fonts/specimen/Dosis. The font includes this copyright statement: Copyright (c) 2011, Edgar Tolentino, Pablo Impallari, Igino Marini (impallari.com impallari@gmail.com), with Reserved Font Name Dosis.\n\nMarkMaker uses semantic data from the Princeton University WordNet database http://wordnet.princeton.edu and font descriptions from Google Fonts https://www.google.com/fonts.&quot;}" fill="url(#color-1)" fill-rule="nonzero" stroke="none" stroke-width="1" stroke-linecap="butt" stroke-linejoin="miter" stroke-miterlimit="10" stroke-dasharray="" stroke-dashoffset="0" font-family="none" font-weight="none" font-size="none" text-anchor="none" style="mix-blend-mode: normal"><g data-paper-data="{&quot;elementType&quot;:&quot;logo&quot;}"><g data-paper-data="{&quot;elementType&quot;:&quot;text&quot;}"><g data-paper-data="{&quot;baseline&quot;:73.2,&quot;elementType&quot;:&quot;row&quot;}"><g data-paper-data="{&quot;baselineProportion&quot;:0.9918699186991871,&quot;fontSize&quot;:100,&quot;baseline&quot;:73.2,&quot;elementType&quot;:&quot;word&quot;}"><path d="M134.94755,437.19995c0,-1.97303 1.03584,-2.95955 3.10753,-2.95955c2.07168,0 3.10753,0.83854 3.10753,2.51562c0,2.36764 0.91253,4.22969 2.73758,5.58615c1.82505,1.35646 4.14337,2.03469 6.95494,2.03469c3.10753,0 5.51216,-0.8632 7.2139,-2.58961c1.70174,-1.7264 2.55261,-4.31601 2.55261,-7.76882v-1.40579c0,-3.35416 -0.85087,-5.8821 -2.55261,-7.58384c-1.70174,-1.70174 -4.08171,-2.55261 -7.13991,-2.55261h-10.5064c-1.92371,0 -2.88556,-0.81388 -2.88556,-2.44163c0,-0.49326 0.04933,-1.03584 0.14798,-1.62775l1.55376,-20.71684c0.09865,-1.47977 0.64124,-2.21966 1.62775,-2.21966h21.30875c0.64124,0 1.13449,0.28362 1.47977,0.85087c0.34528,0.56725 0.51792,1.22081 0.51792,1.9607c0,0.73989 -0.17264,1.39345 -0.51792,1.9607c-0.34528,0.56725 -0.83854,0.85087 -1.47977,0.85087h-17.53533l-1.10983,16.20353h7.39887c4.83393,0 8.69367,1.23315 11.57923,3.69944c2.88556,2.46629 4.32834,6.33837 4.32834,11.61623v1.40579c0,5.47516 -1.45511,9.50755 -4.36533,12.09715c-2.91022,2.58961 -6.75764,3.88441 -11.54224,3.88441c-4.93258,0 -8.82932,-1.24548 -11.69022,-3.73643c-2.8609,-2.49095 -4.29135,-5.51216 -4.29135,-9.06362z" data-paper-data="{&quot;elementType&quot;:&quot;letter&quot;,&quot;baseline&quot;:73.10000000000001,&quot;baselineProportion&quot;:0.9918588873812755,&quot;fontSize&quot;:100}"></path><path d="M175.04943,407.01256c0,-1.03584 0.44393,-1.89904 1.3318,-2.58961l6.80696,-8.06477c0.64124,-0.64124 1.28247,-0.96185 1.92371,-0.96185c0.69056,0 1.31947,0.1973 1.88671,0.59191c0.56725,0.39461 0.85087,0.93719 0.85087,1.62775v49.72042c0,0.69056 -0.30829,1.23315 -0.92486,1.62775c-0.61657,0.39461 -1.34413,0.59191 -2.18267,0.59191c-0.83854,0 -1.56609,-0.1973 -2.18267,-0.59191c-0.61657,-0.39461 -0.92486,-0.93719 -0.92486,-1.62775v-42.6175l-2.73758,4.06938c-0.49326,0.54258 -1.01118,0.81388 -1.55376,0.81388c-0.64124,0 -1.18382,-0.25896 -1.62775,-0.77688c-0.44393,-0.51792 -0.6659,-1.12216 -0.6659,-1.81272z" data-paper-data="{&quot;elementType&quot;:&quot;letter&quot;,&quot;baseline&quot;:73.2,&quot;baselineProportion&quot;:1,&quot;fontSize&quot;:100}"></path><path d="M202.20329,433.87046v-22.2706c0,-5.57382 1.44278,-9.65553 4.32834,-12.24513c2.88556,-2.58961 6.7453,-3.88441 11.57923,-3.88441c4.83393,0 8.70601,1.2948 11.61623,3.88441c2.91022,2.58961 4.36533,6.67132 4.36533,12.24513v22.2706c0,5.57382 -1.45511,9.65553 -4.36533,12.24513c-2.91022,2.58961 -6.7823,3.88441 -11.61623,3.88441c-4.83393,0 -8.69367,-1.2948 -11.57923,-3.88441c-2.88556,-2.58961 -4.32834,-6.67132 -4.32834,-12.24513M208.41834,433.87046c0,7.00426 3.23084,10.5064 9.69252,10.5064c3.10753,0 5.51216,-0.87553 7.2139,-2.6266c1.70174,-1.75107 2.55261,-4.37767 2.55261,-7.8798v-22.2706c0,-3.50213 -0.85087,-6.12873 -2.55261,-7.8798c-1.70174,-1.75107 -4.10637,-2.6266 -7.2139,-2.6266c-6.46168,0 -9.69252,3.50213 -9.69252,10.5064v22.2706M216.03918,424.88083c0,0 -0.13565,-0.14181 -0.40694,-0.42544c-0.27129,-0.28362 -0.40694,-0.8447 -0.40694,-1.68324c0,-0.83854 0.27129,-1.5291 0.81388,-2.07168c0.54258,-0.54258 1.25781,-0.81388 2.14567,-0.81388c0.83854,0 1.5291,0.27129 2.07168,0.81388c0.54258,0.54258 0.81388,1.23315 0.81388,2.07168c0,0.83854 -0.27129,1.54143 -0.81388,2.10868c-0.54258,0.56725 -1.23315,0.85087 -2.07168,0.85087c-0.88786,0 -1.60309,-0.28362 -2.14567,-0.85087z" data-paper-data="{&quot;elementType&quot;:&quot;letter&quot;,&quot;baseline&quot;:73.10000000000001,&quot;baselineProportion&quot;:0.9918588873812755,&quot;fontSize&quot;:100}"></path><path d="M245.93062,447.33641v-7.17691c0,-2.21966 0.85087,-4.40233 2.55261,-6.548c1.70174,-2.14567 3.76109,-4.08171 6.17806,-5.80811l7.17691,-5.32719c2.41696,-1.7264 4.47632,-3.66244 6.17806,-5.80811c1.70174,-2.14567 2.55261,-4.32834 2.55261,-6.548c0,-2.36764 -0.77688,-4.43932 -2.33064,-6.21505c-1.55376,-1.77573 -3.78576,-2.66359 -6.69598,-2.66359c-2.46629,0 -4.47632,0.69056 -6.03008,2.07168c-1.55376,1.38112 -2.33064,3.37882 -2.33064,5.99309c0,0.64124 -0.29595,1.20848 -0.88786,1.70174c-0.59191,0.49326 -1.38112,0.73989 -2.36764,0.73989c-1.87438,0 -2.81157,-1.20848 -2.81157,-3.62545c0,-3.69944 1.39345,-6.73297 4.18036,-9.10061c2.78691,-2.36764 6.20272,-3.55146 10.24744,-3.55146c4.34067,0 7.96612,1.36879 10.87634,4.10637c2.91022,2.73758 4.36533,6.17806 4.36533,10.32143c0,2.46629 -0.60424,4.83393 -1.81272,7.10292c-1.20848,2.26899 -2.71292,4.19269 -4.51331,5.77112c-1.80039,1.57843 -3.76109,3.15685 -5.8821,4.73528l-5.9191,4.21736c-1.77573,1.23315 -3.26783,2.58961 -4.47632,4.06938c-1.20848,1.47977 -1.81272,2.93489 -1.81272,4.36533v3.77342h22.71454c0.59191,0 1.0975,0.27129 1.51677,0.81388c0.41927,0.54258 0.6289,1.20848 0.6289,1.9977c0,0.73989 -0.20963,1.39345 -0.6289,1.9607c-0.41927,0.56725 -0.92486,0.85087 -1.51677,0.85087h-26.33998c-0.64124,0 -1.27014,-0.20963 -1.88671,-0.6289c-0.61657,-0.41927 -0.92486,-0.94952 -0.92486,-1.59076z" data-paper-data="{&quot;elementType&quot;:&quot;letter&quot;,&quot;baseline&quot;:73.10000000000001,&quot;baselineProportion&quot;:1,&quot;fontSize&quot;:100}"></path><path d="M288.84408,433.87046v-22.2706c0,-5.57382 1.44278,-9.65553 4.32834,-12.24513c2.88556,-2.58961 6.7453,-3.88441 11.57923,-3.88441c4.83393,0 8.70601,1.2948 11.61623,3.88441c2.91022,2.58961 4.36533,6.67132 4.36533,12.24513v22.2706c0,5.57382 -1.45511,9.65553 -4.36533,12.24513c-2.91022,2.58961 -6.7823,3.88441 -11.61623,3.88441c-4.83393,0 -8.69367,-1.2948 -11.57923,-3.88441c-2.88556,-2.58961 -4.32834,-6.67132 -4.32834,-12.24513M295.05913,433.87046c0,7.00426 3.23084,10.5064 9.69252,10.5064c3.10753,0 5.51216,-0.87553 7.2139,-2.6266c1.70174,-1.75107 2.55261,-4.37767 2.55261,-7.8798v-22.2706c0,-3.50213 -0.85087,-6.12873 -2.55261,-7.8798c-1.70174,-1.75107 -4.10637,-2.6266 -7.2139,-2.6266c-6.46168,0 -9.69252,3.50213 -9.69252,10.5064v22.2706M302.67996,424.88083c0,0 -0.13565,-0.14181 -0.40694,-0.42544c-0.27129,-0.28362 -0.40694,-0.8447 -0.40694,-1.68324c0,-0.83854 0.27129,-1.5291 0.81388,-2.07168c0.54258,-0.54258 1.25781,-0.81388 2.14567,-0.81388c0.83854,0 1.5291,0.27129 2.07168,0.81388c0.54258,0.54258 0.81388,1.23315 0.81388,2.07168c0,0.83854 -0.27129,1.54143 -0.81388,2.10868c-0.54258,0.56725 -1.23315,0.85087 -2.07168,0.85087c-0.88786,0 -1.60309,-0.28362 -2.14567,-0.85087z" data-paper-data="{&quot;elementType&quot;:&quot;letter&quot;,&quot;baseline&quot;:73.10000000000001,&quot;baselineProportion&quot;:0.9918588873812755,&quot;fontSize&quot;:100}"></path><path d="M333.16332,434.75832v-0.88786c0,-7.10292 2.76225,-11.71488 8.28674,-13.83589c-4.48865,-1.77573 -6.73297,-5.62314 -6.73297,-11.54224c0,-8.68134 4.80927,-13.02201 14.4278,-13.02201c9.56921,0 14.35381,4.34067 14.35381,13.02201c0,5.86977 -2.21966,9.71718 -6.65898,11.54224c5.47516,2.17034 8.21275,6.7823 8.21275,13.83589v0.88786c0,5.22854 -1.44278,9.07595 -4.32834,11.54224c-2.88556,2.46629 -6.7453,3.69944 -11.57923,3.69944c-4.83393,0 -8.70601,-1.23315 -11.61623,-3.69944c-2.91022,-2.46629 -4.36533,-6.3137 -4.36533,-11.54224M339.37837,434.16642c0,7.00426 3.2555,10.5064 9.76651,10.5064c3.10753,0 5.49983,-0.87553 7.17691,-2.6266c1.67708,-1.75107 2.51562,-4.37767 2.51562,-7.8798v-1.18382c0,-3.45281 -0.85087,-6.01775 -2.55261,-7.69483c-1.70174,-1.67708 -4.08171,-2.51562 -7.13991,-2.51562c-6.51101,0 -9.76651,3.40348 -9.76651,10.21044v1.18382M340.78415,409.08424c0,5.57382 2.78691,8.36072 8.36072,8.36072c5.57382,0 8.36072,-2.78691 8.36072,-8.36072c0,-5.52449 -2.78691,-8.28674 -8.36072,-8.28674c-5.57382,0 -8.36072,2.76225 -8.36072,8.28674z" data-paper-data="{&quot;elementType&quot;:&quot;letter&quot;,&quot;baseline&quot;:73.10000000000001,&quot;baselineProportion&quot;:0.9918588873812755,&quot;fontSize&quot;:100}"></path></g></g></g></g><g data-paper-data="{&quot;elementType&quot;:&quot;emblem&quot;}"><g data-paper-data="{&quot;baselineProportion&quot;:0.9918588873812755,&quot;fontSize&quot;:100,&quot;baseline&quot;:73.10000000000001,&quot;elementType&quot;:&quot;word&quot;}"><path d="M157.95804,290.8894c0,-11.38957 5.97952,-17.08435 17.93857,-17.08435c11.95905,0 17.93857,4.84057 17.93857,14.5217c0,13.66748 5.26768,24.41639 15.80303,32.24672c10.53535,7.83033 23.9181,11.74549 40.14823,11.74549c17.93857,0 31.81961,-4.98294 41.64311,-14.94881c9.8235,-9.96587 14.73526,-24.91468 14.73526,-44.84643v-8.11507c0,-19.36227 -4.91175,-33.95516 -14.73526,-43.77866c-9.8235,-9.8235 -23.56217,-14.73526 -41.21601,-14.73526h-60.64946c-11.10483,0 -16.65725,-4.6982 -16.65725,-14.09459c0,-2.84739 0.28474,-5.97952 0.85422,-9.3964l8.96929,-119.59048c0.56948,-8.54218 3.70161,-12.81327 9.3964,-12.81327h123.00735c3.70161,0 6.549,1.63725 8.54218,4.91175c1.99317,3.2745 2.98976,7.0473 2.98976,11.31839c0,4.27109 -0.99659,8.04388 -2.98976,11.31839c-1.99317,3.2745 -4.84057,4.91175 -8.54218,4.91175h-101.2248l-6.40663,93.53684h42.71089c27.90445,0 50.18529,7.11848 66.84254,21.35544c16.65725,14.23696 24.98587,36.58899 24.98587,67.05609v8.11507c0,31.60606 -8.39981,54.88349 -25.19942,69.8323c-16.79962,14.94881 -39.00928,22.42322 -66.62898,22.42322c-28.47392,0 -50.96832,-7.18967 -67.4832,-21.569c-16.51488,-14.37933 -24.77231,-31.81961 -24.77231,-52.32084z" data-paper-data="{&quot;elementType&quot;:&quot;letter&quot;,&quot;baseline&quot;:73.10000000000001,&quot;baselineProportion&quot;:0.9918588873812755,&quot;fontSize&quot;:100}"></path></g></g></g></svg>